# AST/ASF file generated using VICON BodyLanguage
# -----------------------------------------------
:version 1.10
:name VICON
:units
  mass 1.0
  length 0.45
  angle deg
:documentation
   .ast/.asf automatically generated from VICON data using
   VICON BodyBuilder and BodyLanguage model FoxedUp or BRILLIANT.MOD
:root
   order TX TY TZ RX RY RZ
   axis XYZ
   position 0 0 0  
   orientation 0 0 0 
:bonedata
  begin
     id 1 
     name lhipjoint
     direction 0.54267 -0.795011 0.271047 
     length 2.39899 
     axis 0 0 0  XYZ
  end
  begin
     id 2 
     name lfemur
     direction 0.34202 -0.939693 0  
     length 7.49701  
     axis 0 0 20  XYZ
    dof rx ry rz
    limits (-160.0 20.0)
           (-70.0 70.0)
           (-60.0 70.0)
  end
  begin
     id 3 
     name ltibia
     direction 0.34202 -0.939693 0   
     length 8.1668   
     axis 0 0 20   XYZ
    dof rx
    limits (-10.0 170.0)
  end
  begin
     id 4 
     name lfoot
     direction 0.0736283 -0.202292 0.976554   
     length 2.13544   
     axis -90 7.62852e-016 20   XYZ
    dof rx rz
    limits (-45.0 90.0)
           (-70.0 20.0)
  end
  begin
     id 5 
     name ltoes
     direction 1.53557e-011 -4.22024e-011 1   
     length 1.07411   
     axis -90 7.62852e-016 20   XYZ
    dof rx
    limits (-90.0 20.0)
  end
  begin
     id 6 
     name rhipjoint
     direction -0.538061 -0.797813 0.272002   
     length 2.39057  
     axis 0 0 0  XYZ 
  end
  begin
     id 7 
     name rfemur
     direction -0.34202 -0.939693 0   
     length 7.50152   
     axis 0 0 -20   XYZ
    dof rx ry rz
    limits (-160.0 20.0)
           (-70.0 70.0)
           (-70.0 60.0)
  end
  begin
     id 8 
     name rtibia
     direction -0.34202 -0.939693 0   
     length 8.05793   
     axis 0 0 -20   XYZ
    dof rx
    limits (-10.0 170.0)
 end
 begin
     id 9 
     name rfoot
     direction -0.0765195 -0.210236 0.974652   
     length 2.28698  
     axis -90 -7.62852e-016 -20   XYZ
    dof rx rz
    limits (-45.0 90.0)
           (-20.0 70.0)
  end
  begin
     id 10 
     name rtoes
     direction -1.53542e-011 -4.21847e-011 1   
     length 1.14762   
     axis -90 -7.62852e-016 -20   XYZ
    dof rx
    limits (-90.0 20.0)
  end
  begin
     id 11 
     name lowerback
     direction -0.0217239 0.996592 -0.0795765   
     length 2.08176   
     axis 0 0 0   XYZ
    dof rx ry rz
    limits (-20.0 45.0)
           (-30.0 30.0)
           (-30.0 30.0)
  end
  begin
     id 12 
     name upperback
     direction -0.00563773 0.999651 -0.0258155   
     length 2.08898   
     axis 0 0 0   XYZ
    dof rx ry rz
    limits (-20.0 45.0)
           (-30.0 30.0)
           (-30.0 30.0)
  end
  begin
     id 13 
     name thorax
     direction 0.0032706 0.999923 0.0119599   
     length 2.0968   
     axis 0 0 0   XYZ
    dof rx ry rz
    limits (-20.0 45.0)
           (-30.0 30.0)
           (-30.0 30.0)
  end
  begin
     id 14 
     name lowerneck
     direction -0.0285886 0.99568 0.0883427   
     length 1.81272   
     axis 0 0 0   XYZ
    dof rx ry rz
    limits (-20.0 45.0)
           (-30.0 30.0)
           (-30.0 30.0)
  end
  begin
     id 15 
     name upperneck
     direction 0.0807535 0.97985 -0.18268   
     length 1.82518   
     axis 0 0 0   XYZ
    dof rx ry rz
    limits (-20.0 45.0)
           (-30.0 30.0)
           (-30.0 30.0)
  end
  begin
     id 16
     name head
     direction 0.0236605 0.997053 -0.0729767  
     length 1.84443  
     axis 0 0 0   XYZ
    dof rx ry rz
    limits (-20.0 45.0)
           (-30.0 30.0)
           (-30.0 30.0)
  end
  begin
     id 17 
     name lclavicle
     direction 0.918986 0.39378 -0.0200683  
     length 3.27822  
     axis 0 0 0   XYZ
    dof ry rz
    limits (-20.0 10.0)
           (0.0 20.0)
  end
  begin
     id 18 
     name lhumerus
     direction 1 -4.4897e-011 2.09544e-027   
     length 5.5568   
     axis 180 -30 -90   XYZ
    dof rx ry rz
    limits (-60.0 90.0)
           (-90.0 90.0)
           (-90.0 90.0)
  end
  begin
     id 19
     name lradius
     direction 1 -4.48957e-011 -1.27696e-026   
     length 3.63979   
     axis 180 -30 -90   XYZ
    dof rx
    limits (-10.0 170.0)
  end
  begin
     id 20
     name lwrist
     direction 1 -4.49001e-011 -1.49001e-026   
     length 1.8199   
     axis 9.0955e-015 90 90   XYZ
    dof ry
    limits (-180.0 0.0)
 end
  begin
     id 21 
     name lhand
     direction 1 -4.48709e-011 -2.9758e-026   
     length 0.569419   
     axis 1.90115e-014 90 90   XYZ
    dof rx rz
    limits (-90.0 90.0)
           (-45.0 45.0)
  end
  begin
     id 22 
     name lfingers
     direction 1 -4.49175e-011 -5.96505e-026   
     length 0.45908   
     axis 3.80223e-014 90 90   XYZ
    dof rx
    limits (0.0 90.0)
  end
  begin
     id 23
     name lthumb
     direction 0.707107 -6.34864e-011 0.707107   
     length 0.65915   
     axis -90 45 -3.84942e-014   XYZ
    dof rx rz
    limits (-45.0 45.0)
           (-45.0 45.0)
  end
  begin
     id 24 
     name rclavicle
     direction -0.911913 0.396426 -0.106115   
     length 3.46301  
     axis 0 0 0   XYZ 
    dof ry rz
    limits (-10.0 20.0)
           (-20.0 0.0)
  end
  begin
     id 25 
     name rhumerus
     direction -1 -4.48965e-011 7.78516e-028  
     length 5.34339   
     axis 180 30 90   XYZ
    dof rx ry rz
    limits (-90.0 60.0)
           (-90.0 90.0)
           (-90.0 90.0)
  end
  begin
     id 26 
     name rradius
     direction -1 -4.48948e-011 -5.79823e-027   
     length 3.65101   
     axis 180 30 90   XYZ
    dof rx
    limits (-10.0 170.0)
  end
  begin
     id 27 
     name rwrist
     direction -1 -4.48995e-011 -1.48996e-026   
     length 1.8255   
     axis 9.0955e-015 -90 -90   XYZ
    dof ry
    limits (-180.0 0.0)
  end
  begin
     id 28
     name rhand
     direction -1 -4.48957e-011 -2.97937e-026   
     length 0.694249   
     axis 1.90115e-014 -90 -90   XYZ
    dof rx rz
    limits (-90.0 90.0)
           (-45.0 45.0)
  end
  begin
     id 29
     name rfingers
     direction -1 -4.4898e-011 -5.95943e-026   
     length 0.559721   
     axis 3.80223e-014 -90 -90   XYZ
    dof rx
    limits (0.0 90.0)
  end
  begin
     id 30
     name rthumb
     direction -0.707107 -6.34969e-011 0.707107   
     length 0.803651   
     axis -90 -45 3.84942e-014   XYZ
    dof rx rz
    limits (-45.0 45.0)
           (-45.0 45.0)
  end
:hierarchy
  begin
    root lhipjoint rhipjoint lowerback
    lhipjoint lfemur
    lfemur ltibia
    ltibia lfoot
    lfoot ltoes
    rhipjoint rfemur
    rfemur rtibia
    rtibia rfoot
    rfoot rtoes
    lowerback upperback
    upperback thorax
    thorax lowerneck lclavicle rclavicle
    lowerneck upperneck
    upperneck head
    lclavicle lhumerus
    lhumerus lradius
    lradius lwrist
    lwrist lhand lthumb
    lhand lfingers
    rclavicle rhumerus
    rhumerus rradius
    rradius rwrist
    rwrist rhand rthumb
    rhand rfingers
  end

#!OML:ASF H:\Terrain\Walking\May29\JustinRory\rory.ASF
:FULLY-SPECIFIED
:DEGREES
133
root 12.4967 18.5993 9.78037 0.931854 -4.43565 0.138517
lowerback 4.21679 -2.12863 1.76839
upperback 0.868146 -2.71662 2.62817
thorax -1.42457 -1.36127 1.85342
lowerneck -5.91139 -12.085 -10.9358
upperneck 28.7848 -17.9576 7.4938
head 12.1531 -8.54755 2.20419
rclavicle 3.26007e-014 -1.51076e-014
rhumerus -54.7018 20.8813 -100.466
rradius 108.323
rwrist -14.5989
rhand -7.09105 38.8209
rfingers 7.12502
rthumb 18.7833 9.70773
lclavicle 3.26007e-014 -1.51076e-014
lhumerus -23.4455 0.431977 54.8084
lradius 107.089
lwrist 45.3206
lhand -6.92235 18.4027
lfingers 7.12502
lthumb 18.9455 47.5
rfemur -4.95881 12.2661 22.6127
rtibia 23.2392
rfoot -14.0083 -9.65518
rtoes 2.2348
lfemur -24.7618 6.46244 -14.6598
ltibia 42.101
lfoot -10.8654 4.50199
ltoes -13.1785
134
root 12.5138 18.605 9.89741 1.04276 -4.51092 -0.58102
lowerback 3.94136 -2.26923 2.48729
upperback 1.17059 -2.89407 2.74351
thorax -0.986033 -1.44978 1.55972
lowerneck -5.88557 -12.2866 -11.2218
upperneck 28.2387 -18.2159 7.75457
head 12.0207 -8.67433 2.30187
rclavicle 2.06736e-014 -2.22639e-014
rhumerus -54.3801 21.0984 -100.263
rradius 107.86
rwrist -15.0569
rhand -7.52161 39.1498
rfingers 7.12502
rthumb 18.3691 9.99707
lclavicle 2.06736e-014 -2.22639e-014
lhumerus -22.2925 1.98934 53.2405
lradius 106.705
lwrist 45.7358
lhand -8.37056 18.1151
lfingers 7.12502
lthumb 17.5523 47.3427
rfemur -4.2925 12.8633 23.4873
rtibia 22.6125
rfoot -13.8165 -10.2435
rtoes 2.65839
lfemur -24.6918 5.73107 -13.5164
ltibia 39.5889
lfoot -10.8577 4.42072
ltoes -13.4294
135
root 12.5293 18.6141 10.0111 1.33597 -4.81397 -1.12326
lowerback 3.5508 -2.30271 2.90625
upperback 1.35741 -2.9484 2.91339
thorax -0.587264 -1.47429 1.48058
lowerneck -5.69023 -12.5082 -11.5596
upperneck 27.5339 -18.4642 7.93404
head 11.7906 -8.81959 2.39209
rclavicle 2.6339e-014 -2.3059e-014
rhumerus -54.2421 21.2677 -99.8188
rradius 107.286
rwrist -15.4775
rhand -8.19135 39.1135
rfingers 7.12502
rthumb 17.7247 9.90137
lclavicle 2.6339e-014 -2.3059e-014
lhumerus -21.3911 3.54584 52.0381
lradius 106.473
lwrist 45.785
lhand -10.1311 18.018
lfingers 7.12502
lthumb 15.8574 47.3887
rfemur -3.82237 13.3406 24.0849
rtibia 21.8727
rfoot -13.447 -10.5657
rtoes 2.5095
lfemur -24.7245 5.12006 -12.5612
ltibia 37.0129
lfoot -10.2527 5.08502
ltoes -13.8727
136
root 12.5574 18.6361 10.138 1.55295 -4.95966 -0.510417
lowerback 3.11779 -2.35883 2.35
upperback 1.41982 -3.06485 2.69945
thorax -0.263938 -1.5319 1.55318
lowerneck -5.49794 -12.88 -11.8714
upperneck 27.0235 -18.907 7.92187
head 11.6407 -9.06533 2.37441
rclavicle -7.55382e-015 -1.59028e-014
rhumerus -54.3199 21.1728 -99.4048
rradius 106.328
rwrist -15.6161
rhand -8.06084 38.9945
rfingers 7.12502
rthumb 17.8503 9.79372
lclavicle -7.55382e-015 -1.59028e-014
lhumerus -20.5196 4.8425 50.8781
lradius 106.228
lwrist 44.8299
lhand -11.4641 18.2359
lfingers 7.12502
lthumb 14.5733 47.704
rfemur -3.23618 13.0608 23.2657
rtibia 20.9871
rfoot -13.1928 -10.2943
rtoes 2.57691
lfemur -24.625 4.13057 -12.9348
ltibia 34.4373
lfoot -9.84209 5.92368
ltoes -13.494
137
root 12.5818 18.6624 10.2721 1.62392 -5.19906 -0.0899121
lowerback 3.02309 -2.36392 1.9751
upperback 1.37746 -3.08543 2.46611
thorax -0.247808 -1.54292 1.52001
lowerneck -5.02442 -13.2432 -12.2766
upperneck 26.5723 -19.4244 8.10632
head 11.5055 -9.34506 2.44646
rclavicle -7.27552e-014 4.05521e-014
rhumerus -54.8102 20.7662 -99.1505
rradius 105.626
rwrist -15.6185
rhand -7.87687 39.0932
rfingers 7.12502
rthumb 18.0273 9.90861
lclavicle -7.27552e-014 4.05521e-014
lhumerus -19.9331 5.70628 49.5828
lradius 105.873
lwrist 43.236
lhand -12.7645 17.8652
lfingers 7.12502
lthumb 13.3202 47.4195
rfemur -2.4459 13.0338 22.7273
rtibia 20.043
rfoot -12.7542 -10.1365
rtoes 1.47858
lfemur -24.2911 3.07483 -12.9929
ltibia 31.8744
lfoot -9.70989 6.89863
ltoes -12.5148
138
root 12.5985 18.6907 10.3999 1.83158 -5.78825 -0.329306
lowerback 3.09529 -2.26724 2.06749
upperback 1.25857 -2.94737 2.48791
thorax -0.415221 -1.47442 1.49287
lowerneck -4.22457 -13.5052 -12.8524
upperneck 25.7714 -19.8582 8.61502
head 11.2261 -9.59179 2.69842
rclavicle -1.75924e-014 2.38542e-015
rhumerus -55.4435 20.2949 -98.8241
rradius 105.071
rwrist -15.3446
rhand -8.53522 39.3608
rfingers 7.12502
rthumb 17.3938 10.119
lclavicle -1.75924e-014 2.38542e-015
lhumerus -19.7827 6.44829 48.3352
lradius 105.604
lwrist 41.0215
lhand -14.463 16.8738
lfingers 7.12502
lthumb 11.6827 46.5281
rfemur -1.87852 13.351 22.894
rtibia 19.2102
rfoot -12.4226 -9.8301
rtoes 1.6168
lfemur -23.9831 2.19875 -12.209
ltibia 29.2648
lfoot -9.07313 8.24671
ltoes -11.8758
139
root 12.6169 18.7085 10.5214 2.05542 -6.50268 -0.546079
lowerback 3.21857 -2.23131 2.03848
upperback 1.15716 -2.89224 2.53487
thorax -0.584889 -1.4479 1.56345
lowerneck -3.61763 -13.7255 -13.2657
upperneck 25.0508 -20.2112 8.99786
head 10.9777 -9.79178 2.88141
rclavicle -3.3197e-014 3.02153e-014
rhumerus -55.911 20.1873 -98.6336
rradius 104.231
rwrist -14.8831
rhand -9.45613 39.33
rfingers 7.12502
rthumb 16.5073 10.0122
lclavicle -3.3197e-014 3.02153e-014
lhumerus -19.6563 7.4703 47.0506
lradius 105.386
lwrist 38.3149
lhand -16.0966 16.2116
lfingers 7.12502
lthumb 10.1069 45.9489
rfemur -1.4471 13.4868 22.9794
rtibia 18.581
rfoot -12.4025 -9.24914
rtoes 3.90018
lfemur -23.624 1.27385 -11.3881
ltibia 26.6446
lfoot -8.44119 9.63931
ltoes -9.99592
140
root 12.6445 18.7129 10.6459 2.13663 -6.74309 -0.638761
lowerback 3.19324 -2.37865 1.99861
upperback 1.20646 -3.09274 2.51248
thorax -0.516876 -1.54797 1.56752
lowerneck -3.26933 -14.005 -13.5376
upperneck 24.5158 -20.6227 9.23819
head 10.8275 -10.005 2.96294
rclavicle 3.67752e-014 -3.18055e-015
rhumerus -56.305 20.2786 -98.4872
rradius 103.538
rwrist -14.6063
rhand -10.5066 39.1019
rfingers 7.12502
rthumb 15.4957 9.70283
lclavicle 3.67752e-014 -3.18055e-015
lhumerus -19.3199 8.70398 45.8516
lradius 105.15
lwrist 35.7178
lhand -16.9372 15.8143
lfingers 7.12502
lthumb 9.29597 45.5894
rfemur -0.67402 12.9862 23.0388
rtibia 17.859
rfoot -12.2699 -9.06013
rtoes 3.60602
lfemur -23.2516 0.0366819 -10.7528
ltibia 24.2366
lfoot -8.39127 10.769
ltoes -8.63547
141
root 12.6812 18.7235 10.7811 2.29524 -6.31081 -0.86491
lowerback 2.75155 -2.67321 2.2914
upperback 1.38371 -3.50079 2.53046
thorax -0.0993202 -1.74903 1.4092
lowerneck -3.07921 -14.3815 -13.9122
upperneck 23.9202 -21.1546 9.56502
head 10.7281 -10.2655 3.05323
rclavicle -5.1684e-015 3.97569e-015
rhumerus -56.4977 20.7875 -98.1723
rradius 103.275
rwrist -14.5598
rhand -11.9438 38.7637
rfingers 7.12502
rthumb 14.1112 9.26284
lclavicle -5.1684e-015 3.97569e-015
lhumerus -19.0325 10.0068 44.9414
lradius 105.044
lwrist 33.2733
lhand -16.9306 15.4776
lfingers 7.12502
lthumb 9.3023 45.2523
rfemur 0.181094 11.466 23.3495
rtibia 17.3293
rfoot -12.1099 -9.28701
rtoes -1.4056
lfemur -23.0096 -1.55424 -10.0489
ltibia 21.8462
lfoot -8.11705 11.7668
ltoes -9.48345
142
root 12.6956 18.7147 10.9066 2.69688 -7.39008 -1.0932
lowerback 2.29232 -2.4304 2.19305
upperback 1.46959 -3.20223 2.58213
thorax 0.251522 -1.59913 1.48373
lowerneck -2.96122 -14.7684 -14.2504
upperneck 23.4232 -21.6787 9.7777
head 10.6635 -10.5248 3.09175
rclavicle 4.70126e-014 -2.22639e-014
rhumerus -56.6517 21.1964 -97.8422
rradius 103.066
rwrist -13.9392
rhand -13.0919 38.6277
rfingers 7.12502
rthumb 13.0046 9.05304
lclavicle 4.70126e-014 -2.22639e-014
lhumerus -18.9414 11.113 43.9999
lradius 105.199
lwrist 31.0612
lhand -16.849 15.5282
lfingers 7.12502
lthumb 9.38107 45.2994
rfemur 0.359462 11.5701 23.4538
rtibia 16.8782
rfoot -11.8005 -9.19712
rtoes -4.49619
lfemur -22.6761 -2.05239 -9.18315
ltibia 19.5725
lfoot -8.07035 13.0791
ltoes -8.85351
143
root 12.7277 18.7362 11.0334 2.66083 -7.81654 -1.03531
lowerback 2.47608 -2.44051 2.08231
upperback 1.46293 -3.21034 2.52119
thorax 0.144477 -1.60418 1.49203
lowerneck -2.74571 -15.095 -14.4762
upperneck 23.0232 -22.1088 9.81466
head 10.5694 -10.752 3.07935
rclavicle 1.87852e-014 -9.54166e-015
rhumerus -57.2738 20.6165 -97.4236
rradius 102.854
rwrist -12.7093
rhand -13.8094 39.1158
rfingers 7.12502
rthumb 12.3129 9.49833
lclavicle 1.87852e-014 -9.54166e-015
lhumerus -18.9712 11.7953 43.0519
lradius 105.499
lwrist 29.1646
lhand -16.5396 15.6851
lfingers 7.12502
lthumb 9.67959 45.4427
rfemur 1.03848 11.231 23.2987
rtibia 16.4616
rfoot -11.8268 -8.92286
rtoes -4.88595
lfemur -22.0925 -3.44264 -8.63435
ltibia 17.4503
lfoot -8.50116 14.4546
ltoes -7.03768
144
root 12.7573 18.755 11.1733 2.52755 -8.13573 -1.00985
lowerback 2.70247 -2.49384 1.83898
upperback 1.449 -3.27807 2.57519
thorax 0.0211065 -1.64045 1.69578
lowerneck -2.43864 -15.3642 -14.7128
upperneck 22.5613 -22.4504 9.81901
head 10.422 -10.9476 3.08249
rclavicle -9.44227e-015 3.97569e-015
rhumerus -58.2237 20.2612 -96.9201
rradius 103.084
rwrist -11.8458
rhand -14.5069 39.7464
rfingers 7.12502
rthumb 11.6403 10.0898
lclavicle -9.44227e-015 3.97569e-015
lhumerus -19.2721 12.3074 42.3234
lradius 105.999
lwrist 27.7129
lhand -15.8326 15.3458
lfingers 7.12502
lthumb 10.3616 45.0705
rfemur 2.08137 11.4878 23.2038
rtibia 15.7968
rfoot -11.777 -8.61129
rtoes -0.620821
lfemur -21.4827 -4.90295 -8.09808
ltibia 15.69
lfoot -9.07054 15.7122
ltoes -6.25846
145
root 12.787 18.7641 11.3162 2.63187 -8.63591 -1.01085
lowerback 2.5236 -2.52007 1.55471
upperback 1.49063 -3.3277 2.65027
thorax 0.185173 -1.66748 1.92207
lowerneck -2.15977 -15.573 -14.8537
upperneck 21.9367 -22.7001 9.8741
head 10.2034 -11.0912 3.10874
rclavicle 1.44119e-014 -1.19271e-014
rhumerus -58.9708 20.6431 -96.5128
rradius 103.621
rwrist -11.4046
rhand -14.971 39.9747
rfingers 7.12502
rthumb 11.1927 10.2932
lclavicle 1.44119e-014 -1.19271e-014
lhumerus -19.7204 12.9191 41.624
lradius 106.716
lwrist 26.804
lhand -15.2783 14.9012
lfingers 7.12502
lthumb 10.8963 44.5985
rfemur 2.59728 11.1692 23.0551
rtibia 15.2624
rfoot -11.3068 -8.35861
rtoes -1.57834
lfemur -21.0166 -6.02954 -7.5884
ltibia 14.0611
lfoot -9.68172 16.7617
ltoes -5.91771
